<?xml version="1.0" standalone="no"?><!DOCTYPE svg PUBLIC "-//W3C//DTD SVG 1.1//EN" "http://www.w3.org/Graphics/SVG/1.1/DTD/svg11.dtd"><svg t="1626079541974" class="icon" viewBox="0 0 1024 1024" version="1.1" xmlns="http://www.w3.org/2000/svg" p-id="1676" xmlns:xlink="http://www.w3.org/1999/xlink" width="200" height="200"><defs><style type="text/css"></style></defs><path d="M322.8 510.4c-17.4-15.8-34.7-31.6-52.1-47.5-27.5-25.1-55-50.2-82.6-75.2-6.3-5.8-12.6-11.5-19-17.3-2.6 10-5.3 20.1-7.9 30.1 6.3-1.3 12.7-2.7 19-4 17.2-3.6 34.5-7.3 51.7-10.9 25.5-5.4 51-10.8 76.5-16.1 31.1-6.6 62.2-13.1 93.3-19.7L504 328.2c34.4-7.3 68.8-14.5 103.2-21.8 32.1-6.8 64.2-13.5 96.3-20.3l81.3-17.1 58.5-12.3c9.2-1.9 18.6-3.6 27.7-5.8l1.2-0.3c-6.8-8.8-13.6-17.6-20.3-26.4-8.8 18.5-17.6 37-26.4 55.6-21.1 44.5-42.3 88.9-63.4 133.4L685.6 574c-22 46.3-44.1 92.7-66.1 139-10.7 22.5-22.4 44.8-32.2 67.7-0.1 0.3-0.3 0.6-0.4 0.9 9.4-1.2 18.8-2.4 28.3-3.6-18-16.5-36.1-33-54.1-49.5-28.6-26.2-57.2-52.4-85.9-78.5-6.6-6-13.2-12.1-19.8-18.1-6.9-6.3-18.7-7.5-25.5 0-25.6 28.5-51.2 57-76.9 85.5-3.7 4.1-7.4 8.2-11.1 12.4 10.2 4.2 20.5 8.5 30.7 12.7v-142-20.3c-3 5.2-5.9 10.4-8.9 15.5l69.9-47.1c36.8-24.8 73.6-49.6 110.3-74.4 8.5-5.7 17-11.4 25.4-17.2 7.8-5.3 12-16.1 6.5-24.6-5-7.8-16.3-12.1-24.6-6.5-17 11.4-33.9 22.9-50.9 34.3l-96.9 65.4c-19.2 12.9-38.6 25.5-57.5 38.8-6.3 4.4-9.3 10.6-9.3 18.1v65c0 31.1-0.5 62.2 0 93.3v1.8c0 15 20.1 24.6 30.7 12.7 25.6-28.5 51.2-57 76.9-85.5 3.7-4.1 7.4-8.2 11.1-12.4h-25.5c18 16.5 36.1 33 54.1 49.5 28.6 26.2 57.2 52.4 85.9 78.5 6.6 6 13.2 12.1 19.8 18.1 7.9 7.2 23 7.3 28.3-3.6 8.8-18.5 17.6-37 26.4-55.6 21.1-44.5 42.3-88.9 63.4-133.4l76.5-160.8c22-46.3 44.1-92.7 66.1-139 10.7-22.6 21.7-45 32.2-67.7 0.1-0.3 0.3-0.6 0.4-0.9 6.8-14.4-4.4-29.8-20.3-26.4-6.3 1.3-12.7 2.7-19 4-17.2 3.6-34.5 7.3-51.7 10.9-25.5 5.4-51 10.8-76.5 16.1-31.1 6.6-62.2 13.1-93.3 19.7l-102.3 21.6c-34.4 7.3-68.8 14.5-103.2 21.8-32.1 6.8-64.2 13.5-96.3 20.3L239 347.6l-58.5 12.3c-9.2 1.9-18.6 3.6-27.7 5.8l-1.2 0.3c-13 2.8-17.6 21.2-7.9 30.1 17.4 15.8 34.7 31.6 52.1 47.5 27.5 25.1 55 50.2 82.6 75.2 6.3 5.8 12.6 11.5 19 17.3 7 6.3 18.7 7.4 25.5 0 6.2-7.1 7.3-18.9-0.1-25.7z" p-id="1677"></path></svg>