<?xml version="1.0" standalone="no"?><!DOCTYPE svg PUBLIC "-//W3C//DTD SVG 1.1//EN" "http://www.w3.org/Graphics/SVG/1.1/DTD/svg11.dtd"><svg t="1618751398086" class="icon" viewBox="0 0 1209 1024" version="1.1" xmlns="http://www.w3.org/2000/svg" p-id="2086" width="236.1328125" height="200" xmlns:xlink="http://www.w3.org/1999/xlink"><defs><style type="text/css"></style></defs><path d="M893.243077 1024H99.879385A99.879385 99.879385 0 0 1 0 924.120615V346.584615a99.879385 99.879385 0 0 1 99.879385-99.24923h793.363692A99.879385 99.879385 0 0 1 992.807385 346.584615v106.496l126.030769-56.398769a63.015385 63.015385 0 0 1 89.481846 58.289231v402.668308a63.015385 63.015385 0 0 1-89.481846 58.28923l-126.030769-56.398769v63.015385a99.879385 99.879385 0 0 1-99.564308 101.454769zM99.879385 302.473846A44.740923 44.740923 0 0 0 55.138462 346.584615v577.536a44.740923 44.740923 0 0 0 44.740923 44.425847h793.363692a44.740923 44.740923 0 0 0 44.425846-44.425847v-149.346461l204.484923 90.742154a8.822154 8.822154 0 0 0 11.972923-7.876923V455.286154a8.507077 8.507077 0 0 0 0-3.465846 8.507077 8.507077 0 0 0-4.726154-4.411077 8.507077 8.507077 0 0 0-6.616615 0l-204.484923 90.742154V346.584615a44.740923 44.740923 0 0 0-45.056-44.110769z m324.52923 540.987077a63.015385 63.015385 0 0 1-63.015384-63.015385v-289.240615a63.015385 63.015385 0 0 1 94.523077-55.138461l252.061538 144.30523a63.015385 63.015385 0 0 1 23.630769 23.63077 63.015385 63.015385 0 0 1-23.630769 86.96123l-252.061538 144.305231a63.015385 63.015385 0 0 1-31.507693 8.192z m0-360.763077h-2.205538a8.192 8.192 0 0 0-5.041231 4.096 8.507077 8.507077 0 0 0 0 4.096v288.610462a8.822154 8.822154 0 0 0 12.603077 7.246769l252.061539-144.305231a8.507077 8.507077 0 0 0 3.150769-11.657846 8.507077 8.507077 0 0 0-3.150769-3.150769l-252.061539-144.305231a8.507077 8.507077 0 0 0-5.356308-0.630154z m45.056 255.842462a36.548923 36.548923 0 0 1-36.548923-36.548923v-133.277539a36.548923 36.548923 0 0 1 54.508308-31.507692l116.893538 66.796308a36.548923 36.548923 0 0 1 0 63.015384l-116.893538 67.111385a36.548923 36.548923 0 0 1-17.959385 4.726154z m18.589539-137.688616v69.316923l60.494769-34.658461z m-27.726769-16.068923z m131.702153-359.502769a112.482462 112.482462 0 1 1 112.482462-112.482462 112.797538 112.797538 0 0 1-112.482462 112.482462z m0-170.141538a57.344 57.344 0 1 0 57.344 57.344 57.659077 57.659077 0 0 0-57.344-57.344zM336.502154 220.553846a92.317538 92.317538 0 0 1-31.507692-178.648615 92.002462 92.002462 0 0 1 115.63323 126.030769A92.317538 92.317538 0 0 1 336.502154 220.553846z m0-129.181538a37.494154 37.494154 0 0 0-12.918154 2.205538 36.864 36.864 0 0 0-20.795077 19.219692 36.864 36.864 0 1 0 33.713231-21.740307z" p-id="2087" fill="#e6e6e6"></path></svg>